# xmcd CD database file
#
# Track frame offsets:
#	187
#	24940
#	47477
#	68057
#	88797
#	108910
#	129297
#	151775
#	175122
#	203552
#	223055
#	244635
#
# Disc length: 3622 seconds
#
# Revision: 2
# Processed by: cddbd v1.5.2PL0 Copyright (c) Steve Scherf et al.
# Submitted via: CDex 1.70beta2
#
DISCID=8f0e240c
DTITLE=Orquesta De La Luz - La Historia De La Luz
DYEAR=1993
DGENRE=Salsa
TTITLE0=Cuero Sono (Mambo Live Version)
TTITLE1=Mambo De La Luz
TTITLE2=El Me Ama, Yo Le Amo
TTITLE3=Tu Eres El Hombre
TTITLE4=Salsa Con Sabor
TTITLE5=Salsa No Tiene Frontera
TTITLE6=Salsa Es Mi Energia
TTITLE7=Somos Diferentes
TTITLE8=Descarga De La Luz
TTITLE9=El Agua De Belen
TTITLE10=Salsa Y Control
TTITLE11=Salsa Caliente Del Japón (Live Version)
EXTD=YEAR: 1993
EXTT0=
EXTT1=
EXTT2=
EXTT3=
EXTT4=
EXTT5=
EXTT6=
EXTT7=
EXTT8=
EXTT9=
EXTT10=
EXTT11=
PLAYORDER=
